G04 EAGLE Gerber RS-274X export*
G75*
%MOMM*%
%FSLAX34Y34*%
%LPD*%
%INTop Copper*%
%IPPOS*%
%AMOC8*
5,1,8,0,0,1.08239X$1,22.5*%
G01*
%ADD10C,1.930400*%
%ADD11P,1.429621X8X22.500000*%
%ADD12C,0.152400*%

G36*
X589098Y10164D02*
X589098Y10164D01*
X589117Y10162D01*
X589219Y10184D01*
X589321Y10200D01*
X589338Y10210D01*
X589358Y10214D01*
X589447Y10267D01*
X589538Y10316D01*
X589552Y10330D01*
X589569Y10340D01*
X589636Y10419D01*
X589708Y10494D01*
X589716Y10512D01*
X589729Y10527D01*
X589768Y10623D01*
X589811Y10717D01*
X589813Y10737D01*
X589821Y10755D01*
X589839Y10922D01*
X589839Y389078D01*
X589836Y389098D01*
X589838Y389117D01*
X589816Y389219D01*
X589800Y389321D01*
X589790Y389338D01*
X589786Y389358D01*
X589733Y389447D01*
X589684Y389538D01*
X589670Y389552D01*
X589660Y389569D01*
X589581Y389636D01*
X589506Y389708D01*
X589488Y389716D01*
X589473Y389729D01*
X589377Y389768D01*
X589283Y389811D01*
X589263Y389813D01*
X589245Y389821D01*
X589078Y389839D01*
X10922Y389839D01*
X10902Y389836D01*
X10883Y389838D01*
X10781Y389816D01*
X10679Y389800D01*
X10662Y389790D01*
X10642Y389786D01*
X10553Y389733D01*
X10462Y389684D01*
X10448Y389670D01*
X10431Y389660D01*
X10364Y389581D01*
X10292Y389506D01*
X10284Y389488D01*
X10271Y389473D01*
X10232Y389377D01*
X10189Y389283D01*
X10187Y389263D01*
X10179Y389245D01*
X10161Y389078D01*
X10161Y10922D01*
X10164Y10902D01*
X10162Y10883D01*
X10184Y10781D01*
X10200Y10679D01*
X10210Y10662D01*
X10214Y10642D01*
X10267Y10553D01*
X10316Y10462D01*
X10330Y10448D01*
X10340Y10431D01*
X10419Y10364D01*
X10494Y10292D01*
X10512Y10284D01*
X10527Y10271D01*
X10623Y10232D01*
X10717Y10189D01*
X10737Y10187D01*
X10755Y10179D01*
X10922Y10161D01*
X589078Y10161D01*
X589098Y10164D01*
G37*
%LPC*%
G36*
X423933Y111871D02*
X423933Y111871D01*
X419171Y116633D01*
X419171Y123367D01*
X424037Y128233D01*
X424041Y128235D01*
X424132Y128284D01*
X424146Y128298D01*
X424163Y128308D01*
X424230Y128387D01*
X424302Y128462D01*
X424310Y128480D01*
X424323Y128495D01*
X424362Y128591D01*
X424405Y128685D01*
X424407Y128705D01*
X424415Y128723D01*
X424433Y128890D01*
X424433Y181617D01*
X424419Y181708D01*
X424411Y181798D01*
X424399Y181828D01*
X424394Y181860D01*
X424351Y181941D01*
X424315Y182025D01*
X424289Y182057D01*
X424278Y182078D01*
X424255Y182100D01*
X424210Y182156D01*
X329945Y276421D01*
X329945Y308109D01*
X329931Y308200D01*
X329923Y308290D01*
X329911Y308320D01*
X329906Y308352D01*
X329863Y308433D01*
X329827Y308517D01*
X329801Y308549D01*
X329790Y308570D01*
X329767Y308592D01*
X329722Y308648D01*
X328460Y309910D01*
X327270Y311100D01*
X327196Y311153D01*
X327126Y311213D01*
X327096Y311225D01*
X327070Y311244D01*
X326983Y311271D01*
X326898Y311305D01*
X326857Y311309D01*
X326835Y311316D01*
X326803Y311315D01*
X326732Y311323D01*
X325477Y311323D01*
X321369Y313025D01*
X318225Y316169D01*
X316523Y320277D01*
X316523Y324723D01*
X318225Y328831D01*
X321369Y331975D01*
X325477Y333677D01*
X329923Y333677D01*
X334031Y331975D01*
X337175Y328831D01*
X338877Y324723D01*
X338877Y320277D01*
X337175Y316169D01*
X334031Y313025D01*
X333515Y312811D01*
X333476Y312787D01*
X333433Y312771D01*
X333373Y312723D01*
X333306Y312682D01*
X333277Y312646D01*
X333241Y312618D01*
X333199Y312552D01*
X333149Y312492D01*
X333133Y312449D01*
X333108Y312411D01*
X333089Y312335D01*
X333061Y312262D01*
X333059Y312217D01*
X333048Y312172D01*
X333054Y312095D01*
X333051Y312017D01*
X333064Y311973D01*
X333067Y311927D01*
X333098Y311855D01*
X333119Y311780D01*
X333146Y311743D01*
X333164Y311701D01*
X333249Y311594D01*
X333260Y311578D01*
X333264Y311575D01*
X333268Y311570D01*
X334519Y310319D01*
X334519Y278631D01*
X334533Y278540D01*
X334541Y278450D01*
X334553Y278420D01*
X334558Y278388D01*
X334601Y278307D01*
X334637Y278223D01*
X334663Y278191D01*
X334674Y278170D01*
X334697Y278148D01*
X334742Y278092D01*
X429007Y183827D01*
X429007Y128890D01*
X429008Y128881D01*
X429008Y128876D01*
X429010Y128868D01*
X429008Y128851D01*
X429030Y128749D01*
X429046Y128647D01*
X429056Y128630D01*
X429060Y128610D01*
X429113Y128521D01*
X429162Y128430D01*
X429176Y128416D01*
X429186Y128399D01*
X429265Y128332D01*
X429340Y128260D01*
X429358Y128252D01*
X429373Y128239D01*
X429469Y128200D01*
X429563Y128157D01*
X429583Y128155D01*
X429601Y128147D01*
X429768Y128129D01*
X430667Y128129D01*
X435429Y123367D01*
X435429Y116633D01*
X430667Y111871D01*
X423933Y111871D01*
G37*
%LPD*%
%LPC*%
G36*
X173077Y57323D02*
X173077Y57323D01*
X168969Y59025D01*
X165825Y62169D01*
X164123Y66277D01*
X164123Y70723D01*
X165825Y74831D01*
X168969Y77975D01*
X173077Y79677D01*
X177523Y79677D01*
X181631Y77975D01*
X184775Y74831D01*
X186477Y70723D01*
X186477Y66277D01*
X184775Y62169D01*
X181631Y59025D01*
X177523Y57323D01*
X173077Y57323D01*
G37*
%LPD*%
%LPC*%
G36*
X223877Y57323D02*
X223877Y57323D01*
X219769Y59025D01*
X216625Y62169D01*
X214923Y66277D01*
X214923Y70723D01*
X216625Y74831D01*
X219769Y77975D01*
X223877Y79677D01*
X228323Y79677D01*
X232431Y77975D01*
X235575Y74831D01*
X237277Y70723D01*
X237277Y66277D01*
X235575Y62169D01*
X232431Y59025D01*
X228323Y57323D01*
X223877Y57323D01*
G37*
%LPD*%
%LPC*%
G36*
X198477Y311323D02*
X198477Y311323D01*
X194369Y313025D01*
X191225Y316169D01*
X189523Y320277D01*
X189523Y324723D01*
X191225Y328831D01*
X194369Y331975D01*
X198477Y333677D01*
X202923Y333677D01*
X207031Y331975D01*
X210175Y328831D01*
X211877Y324723D01*
X211877Y320277D01*
X210175Y316169D01*
X207031Y313025D01*
X202923Y311323D01*
X198477Y311323D01*
G37*
%LPD*%
%LPC*%
G36*
X173077Y311323D02*
X173077Y311323D01*
X168969Y313025D01*
X165825Y316169D01*
X164123Y320277D01*
X164123Y324723D01*
X165825Y328831D01*
X168969Y331975D01*
X173077Y333677D01*
X177523Y333677D01*
X181631Y331975D01*
X184775Y328831D01*
X186477Y324723D01*
X186477Y320277D01*
X184775Y316169D01*
X181631Y313025D01*
X177523Y311323D01*
X173077Y311323D01*
G37*
%LPD*%
%LPC*%
G36*
X477877Y311323D02*
X477877Y311323D01*
X473769Y313025D01*
X470625Y316169D01*
X468923Y320277D01*
X468923Y324723D01*
X470625Y328831D01*
X473769Y331975D01*
X477877Y333677D01*
X482323Y333677D01*
X486431Y331975D01*
X489575Y328831D01*
X491277Y324723D01*
X491277Y320277D01*
X489575Y316169D01*
X486431Y313025D01*
X482323Y311323D01*
X477877Y311323D01*
G37*
%LPD*%
%LPC*%
G36*
X452477Y311323D02*
X452477Y311323D01*
X448369Y313025D01*
X445225Y316169D01*
X443523Y320277D01*
X443523Y324723D01*
X445225Y328831D01*
X448369Y331975D01*
X452477Y333677D01*
X456923Y333677D01*
X461031Y331975D01*
X464175Y328831D01*
X465877Y324723D01*
X465877Y320277D01*
X464175Y316169D01*
X461031Y313025D01*
X456923Y311323D01*
X452477Y311323D01*
G37*
%LPD*%
%LPC*%
G36*
X427077Y311323D02*
X427077Y311323D01*
X422969Y313025D01*
X419825Y316169D01*
X418123Y320277D01*
X418123Y324723D01*
X419825Y328831D01*
X422969Y331975D01*
X427077Y333677D01*
X431523Y333677D01*
X435631Y331975D01*
X438775Y328831D01*
X440477Y324723D01*
X440477Y320277D01*
X438775Y316169D01*
X435631Y313025D01*
X431523Y311323D01*
X427077Y311323D01*
G37*
%LPD*%
%LPC*%
G36*
X401677Y311323D02*
X401677Y311323D01*
X397569Y313025D01*
X394425Y316169D01*
X392723Y320277D01*
X392723Y324723D01*
X394425Y328831D01*
X397569Y331975D01*
X401677Y333677D01*
X406123Y333677D01*
X410231Y331975D01*
X413375Y328831D01*
X415077Y324723D01*
X415077Y320277D01*
X413375Y316169D01*
X410231Y313025D01*
X406123Y311323D01*
X401677Y311323D01*
G37*
%LPD*%
%LPC*%
G36*
X376277Y311323D02*
X376277Y311323D01*
X372169Y313025D01*
X369025Y316169D01*
X367323Y320277D01*
X367323Y324723D01*
X369025Y328831D01*
X372169Y331975D01*
X376277Y333677D01*
X380723Y333677D01*
X384831Y331975D01*
X387975Y328831D01*
X389677Y324723D01*
X389677Y320277D01*
X387975Y316169D01*
X384831Y313025D01*
X380723Y311323D01*
X376277Y311323D01*
G37*
%LPD*%
%LPC*%
G36*
X350877Y311323D02*
X350877Y311323D01*
X346769Y313025D01*
X343625Y316169D01*
X341923Y320277D01*
X341923Y324723D01*
X343625Y328831D01*
X346769Y331975D01*
X350877Y333677D01*
X355323Y333677D01*
X359431Y331975D01*
X362575Y328831D01*
X364277Y324723D01*
X364277Y320277D01*
X362575Y316169D01*
X359431Y313025D01*
X355323Y311323D01*
X350877Y311323D01*
G37*
%LPD*%
%LPC*%
G36*
X300077Y311323D02*
X300077Y311323D01*
X295969Y313025D01*
X292825Y316169D01*
X291123Y320277D01*
X291123Y324723D01*
X292825Y328831D01*
X295969Y331975D01*
X300077Y333677D01*
X304523Y333677D01*
X308631Y331975D01*
X311775Y328831D01*
X313477Y324723D01*
X313477Y320277D01*
X311775Y316169D01*
X308631Y313025D01*
X304523Y311323D01*
X300077Y311323D01*
G37*
%LPD*%
%LPC*%
G36*
X274677Y311323D02*
X274677Y311323D01*
X270569Y313025D01*
X267425Y316169D01*
X265723Y320277D01*
X265723Y324723D01*
X267425Y328831D01*
X270569Y331975D01*
X274677Y333677D01*
X279123Y333677D01*
X283231Y331975D01*
X286375Y328831D01*
X288077Y324723D01*
X288077Y320277D01*
X286375Y316169D01*
X283231Y313025D01*
X279123Y311323D01*
X274677Y311323D01*
G37*
%LPD*%
%LPC*%
G36*
X249277Y311323D02*
X249277Y311323D01*
X245169Y313025D01*
X242025Y316169D01*
X240323Y320277D01*
X240323Y324723D01*
X242025Y328831D01*
X245169Y331975D01*
X249277Y333677D01*
X253723Y333677D01*
X257831Y331975D01*
X260975Y328831D01*
X262677Y324723D01*
X262677Y320277D01*
X260975Y316169D01*
X257831Y313025D01*
X253723Y311323D01*
X249277Y311323D01*
G37*
%LPD*%
%LPC*%
G36*
X223877Y311323D02*
X223877Y311323D01*
X219769Y313025D01*
X216625Y316169D01*
X214923Y320277D01*
X214923Y324723D01*
X216625Y328831D01*
X219769Y331975D01*
X223877Y333677D01*
X228323Y333677D01*
X232431Y331975D01*
X235575Y328831D01*
X237277Y324723D01*
X237277Y320277D01*
X235575Y316169D01*
X232431Y313025D01*
X228323Y311323D01*
X223877Y311323D01*
G37*
%LPD*%
%LPC*%
G36*
X122277Y311323D02*
X122277Y311323D01*
X118169Y313025D01*
X115025Y316169D01*
X113323Y320277D01*
X113323Y324723D01*
X115025Y328831D01*
X118169Y331975D01*
X122277Y333677D01*
X126723Y333677D01*
X130831Y331975D01*
X133975Y328831D01*
X135677Y324723D01*
X135677Y320277D01*
X133975Y316169D01*
X130831Y313025D01*
X126723Y311323D01*
X122277Y311323D01*
G37*
%LPD*%
%LPC*%
G36*
X249277Y57323D02*
X249277Y57323D01*
X245169Y59025D01*
X242025Y62169D01*
X240323Y66277D01*
X240323Y70723D01*
X242025Y74831D01*
X245169Y77975D01*
X249277Y79677D01*
X253723Y79677D01*
X257831Y77975D01*
X260975Y74831D01*
X262677Y70723D01*
X262677Y66277D01*
X260975Y62169D01*
X257831Y59025D01*
X253723Y57323D01*
X249277Y57323D01*
G37*
%LPD*%
%LPC*%
G36*
X274677Y57323D02*
X274677Y57323D01*
X270569Y59025D01*
X267425Y62169D01*
X265723Y66277D01*
X265723Y70723D01*
X267425Y74831D01*
X270569Y77975D01*
X274677Y79677D01*
X279123Y79677D01*
X283231Y77975D01*
X286375Y74831D01*
X288077Y70723D01*
X288077Y66277D01*
X286375Y62169D01*
X283231Y59025D01*
X279123Y57323D01*
X274677Y57323D01*
G37*
%LPD*%
%LPC*%
G36*
X376277Y57323D02*
X376277Y57323D01*
X372169Y59025D01*
X369025Y62169D01*
X367323Y66277D01*
X367323Y70723D01*
X369025Y74831D01*
X372169Y77975D01*
X376277Y79677D01*
X380723Y79677D01*
X384831Y77975D01*
X387975Y74831D01*
X389677Y70723D01*
X389677Y66277D01*
X387975Y62169D01*
X384831Y59025D01*
X380723Y57323D01*
X376277Y57323D01*
G37*
%LPD*%
%LPC*%
G36*
X401677Y57323D02*
X401677Y57323D01*
X397569Y59025D01*
X394425Y62169D01*
X392723Y66277D01*
X392723Y70723D01*
X394425Y74831D01*
X397569Y77975D01*
X401677Y79677D01*
X406123Y79677D01*
X410231Y77975D01*
X413375Y74831D01*
X415077Y70723D01*
X415077Y66277D01*
X413375Y62169D01*
X410231Y59025D01*
X406123Y57323D01*
X401677Y57323D01*
G37*
%LPD*%
%LPC*%
G36*
X427077Y57323D02*
X427077Y57323D01*
X422969Y59025D01*
X419825Y62169D01*
X418123Y66277D01*
X418123Y70723D01*
X419825Y74831D01*
X422969Y77975D01*
X427077Y79677D01*
X431523Y79677D01*
X435631Y77975D01*
X438775Y74831D01*
X440477Y70723D01*
X440477Y66277D01*
X438775Y62169D01*
X435631Y59025D01*
X431523Y57323D01*
X427077Y57323D01*
G37*
%LPD*%
%LPC*%
G36*
X452477Y57323D02*
X452477Y57323D01*
X448369Y59025D01*
X445225Y62169D01*
X443523Y66277D01*
X443523Y70723D01*
X445225Y74831D01*
X448369Y77975D01*
X452477Y79677D01*
X456923Y79677D01*
X461031Y77975D01*
X464175Y74831D01*
X465877Y70723D01*
X465877Y66277D01*
X464175Y62169D01*
X461031Y59025D01*
X456923Y57323D01*
X452477Y57323D01*
G37*
%LPD*%
%LPC*%
G36*
X477877Y57323D02*
X477877Y57323D01*
X473769Y59025D01*
X470625Y62169D01*
X468923Y66277D01*
X468923Y70723D01*
X470625Y74831D01*
X473769Y77975D01*
X477877Y79677D01*
X482323Y79677D01*
X486431Y77975D01*
X489575Y74831D01*
X491277Y70723D01*
X491277Y66277D01*
X489575Y62169D01*
X486431Y59025D01*
X482323Y57323D01*
X477877Y57323D01*
G37*
%LPD*%
%LPC*%
G36*
X300077Y57323D02*
X300077Y57323D01*
X295969Y59025D01*
X292825Y62169D01*
X291123Y66277D01*
X291123Y70723D01*
X292825Y74831D01*
X295969Y77975D01*
X300077Y79677D01*
X304523Y79677D01*
X308631Y77975D01*
X311775Y74831D01*
X313477Y70723D01*
X313477Y66277D01*
X311775Y62169D01*
X308631Y59025D01*
X304523Y57323D01*
X300077Y57323D01*
G37*
%LPD*%
%LPC*%
G36*
X325477Y57323D02*
X325477Y57323D01*
X321369Y59025D01*
X318225Y62169D01*
X316523Y66277D01*
X316523Y70723D01*
X318225Y74831D01*
X321369Y77975D01*
X325477Y79677D01*
X329923Y79677D01*
X334031Y77975D01*
X337175Y74831D01*
X338877Y70723D01*
X338877Y66277D01*
X337175Y62169D01*
X334031Y59025D01*
X329923Y57323D01*
X325477Y57323D01*
G37*
%LPD*%
%LPC*%
G36*
X350877Y57323D02*
X350877Y57323D01*
X346769Y59025D01*
X343625Y62169D01*
X341923Y66277D01*
X341923Y70723D01*
X343625Y74831D01*
X346769Y77975D01*
X350877Y79677D01*
X355323Y79677D01*
X359431Y77975D01*
X362575Y74831D01*
X364277Y70723D01*
X364277Y66277D01*
X362575Y62169D01*
X359431Y59025D01*
X355323Y57323D01*
X350877Y57323D01*
G37*
%LPD*%
%LPC*%
G36*
X198477Y57323D02*
X198477Y57323D01*
X194369Y59025D01*
X191225Y62169D01*
X189523Y66277D01*
X189523Y70723D01*
X191225Y74831D01*
X194369Y77975D01*
X198477Y79677D01*
X202923Y79677D01*
X207031Y77975D01*
X210175Y74831D01*
X211877Y70723D01*
X211877Y66277D01*
X210175Y62169D01*
X207031Y59025D01*
X202923Y57323D01*
X198477Y57323D01*
G37*
%LPD*%
%LPC*%
G36*
X122277Y57323D02*
X122277Y57323D01*
X118169Y59025D01*
X115025Y62169D01*
X113323Y66277D01*
X113323Y70723D01*
X115025Y74831D01*
X118169Y77975D01*
X122277Y79677D01*
X126723Y79677D01*
X130831Y77975D01*
X133975Y74831D01*
X135677Y70723D01*
X135677Y66277D01*
X133975Y62169D01*
X130831Y59025D01*
X126723Y57323D01*
X122277Y57323D01*
G37*
%LPD*%
%LPC*%
G36*
X183933Y271871D02*
X183933Y271871D01*
X179171Y276633D01*
X179171Y283367D01*
X183933Y288129D01*
X190667Y288129D01*
X195429Y283367D01*
X195429Y276633D01*
X190667Y271871D01*
X183933Y271871D01*
G37*
%LPD*%
%LPC*%
G36*
X154733Y271871D02*
X154733Y271871D01*
X149971Y276633D01*
X149971Y283367D01*
X154733Y288129D01*
X161467Y288129D01*
X166229Y283367D01*
X166229Y276633D01*
X161467Y271871D01*
X154733Y271871D01*
G37*
%LPD*%
%LPC*%
G36*
X78533Y271871D02*
X78533Y271871D01*
X73771Y276633D01*
X73771Y283367D01*
X78533Y288129D01*
X85267Y288129D01*
X90029Y283367D01*
X90029Y276633D01*
X85267Y271871D01*
X78533Y271871D01*
G37*
%LPD*%
%LPC*%
G36*
X103933Y191871D02*
X103933Y191871D01*
X99171Y196633D01*
X99171Y203367D01*
X103933Y208129D01*
X110667Y208129D01*
X115429Y203367D01*
X115429Y196633D01*
X110667Y191871D01*
X103933Y191871D01*
G37*
%LPD*%
%LPC*%
G36*
X503933Y191871D02*
X503933Y191871D01*
X499171Y196633D01*
X499171Y203367D01*
X503933Y208129D01*
X510667Y208129D01*
X515429Y203367D01*
X515429Y196633D01*
X510667Y191871D01*
X503933Y191871D01*
G37*
%LPD*%
%LPC*%
G36*
X423933Y191871D02*
X423933Y191871D01*
X419171Y196633D01*
X419171Y203367D01*
X423933Y208129D01*
X430667Y208129D01*
X435429Y203367D01*
X435429Y196633D01*
X430667Y191871D01*
X423933Y191871D01*
G37*
%LPD*%
%LPC*%
G36*
X103933Y111871D02*
X103933Y111871D01*
X99171Y116633D01*
X99171Y123367D01*
X103933Y128129D01*
X110667Y128129D01*
X115429Y123367D01*
X115429Y116633D01*
X110667Y111871D01*
X103933Y111871D01*
G37*
%LPD*%
%LPC*%
G36*
X263933Y191871D02*
X263933Y191871D01*
X259171Y196633D01*
X259171Y203367D01*
X263933Y208129D01*
X270667Y208129D01*
X275429Y203367D01*
X275429Y196633D01*
X270667Y191871D01*
X263933Y191871D01*
G37*
%LPD*%
%LPC*%
G36*
X343933Y111871D02*
X343933Y111871D01*
X339171Y116633D01*
X339171Y123367D01*
X343933Y128129D01*
X350667Y128129D01*
X355429Y123367D01*
X355429Y116633D01*
X350667Y111871D01*
X343933Y111871D01*
G37*
%LPD*%
%LPC*%
G36*
X183933Y111871D02*
X183933Y111871D01*
X179171Y116633D01*
X179171Y123367D01*
X183933Y128129D01*
X190667Y128129D01*
X195429Y123367D01*
X195429Y116633D01*
X190667Y111871D01*
X183933Y111871D01*
G37*
%LPD*%
%LPC*%
G36*
X263933Y111871D02*
X263933Y111871D01*
X259171Y116633D01*
X259171Y123367D01*
X263933Y128129D01*
X270667Y128129D01*
X275429Y123367D01*
X275429Y116633D01*
X270667Y111871D01*
X263933Y111871D01*
G37*
%LPD*%
%LPC*%
G36*
X502421Y111475D02*
X502421Y111475D01*
X497659Y116237D01*
X497659Y122971D01*
X502421Y127733D01*
X509155Y127733D01*
X513917Y122971D01*
X513917Y116237D01*
X509155Y111475D01*
X502421Y111475D01*
G37*
%LPD*%
%LPC*%
G36*
X343933Y271871D02*
X343933Y271871D01*
X339171Y276633D01*
X339171Y283367D01*
X343933Y288129D01*
X350667Y288129D01*
X355429Y283367D01*
X355429Y276633D01*
X350667Y271871D01*
X343933Y271871D01*
G37*
%LPD*%
%LPC*%
G36*
X263933Y271871D02*
X263933Y271871D01*
X259171Y276633D01*
X259171Y283367D01*
X263933Y288129D01*
X270667Y288129D01*
X275429Y283367D01*
X275429Y276633D01*
X270667Y271871D01*
X263933Y271871D01*
G37*
%LPD*%
%LPC*%
G36*
X503933Y271871D02*
X503933Y271871D01*
X499171Y276633D01*
X499171Y283367D01*
X503933Y288129D01*
X510667Y288129D01*
X515429Y283367D01*
X515429Y276633D01*
X510667Y271871D01*
X503933Y271871D01*
G37*
%LPD*%
%LPC*%
G36*
X423933Y271871D02*
X423933Y271871D01*
X419171Y276633D01*
X419171Y283367D01*
X423933Y288129D01*
X430667Y288129D01*
X435429Y283367D01*
X435429Y276633D01*
X430667Y271871D01*
X423933Y271871D01*
G37*
%LPD*%
%LPC*%
G36*
X183933Y191871D02*
X183933Y191871D01*
X179171Y196633D01*
X179171Y203367D01*
X183933Y208129D01*
X190667Y208129D01*
X195429Y203367D01*
X195429Y196633D01*
X190667Y191871D01*
X183933Y191871D01*
G37*
%LPD*%
%LPC*%
G36*
X343933Y191871D02*
X343933Y191871D01*
X339171Y196633D01*
X339171Y203367D01*
X343933Y208129D01*
X350667Y208129D01*
X355429Y203367D01*
X355429Y196633D01*
X350667Y191871D01*
X343933Y191871D01*
G37*
%LPD*%
%LPC*%
G36*
X151423Y324023D02*
X151423Y324023D01*
X151423Y334603D01*
X152755Y334393D01*
X154580Y333799D01*
X156290Y332928D01*
X157843Y331800D01*
X159200Y330443D01*
X160328Y328890D01*
X161199Y327180D01*
X161793Y325355D01*
X162003Y324023D01*
X151423Y324023D01*
G37*
%LPD*%
%LPC*%
G36*
X151423Y70023D02*
X151423Y70023D01*
X151423Y80603D01*
X152755Y80393D01*
X154580Y79799D01*
X156290Y78928D01*
X157843Y77800D01*
X159200Y76443D01*
X160328Y74890D01*
X161199Y73180D01*
X161793Y71355D01*
X162003Y70023D01*
X151423Y70023D01*
G37*
%LPD*%
%LPC*%
G36*
X137797Y324023D02*
X137797Y324023D01*
X138007Y325355D01*
X138601Y327180D01*
X139472Y328890D01*
X140600Y330443D01*
X141957Y331800D01*
X143510Y332928D01*
X145220Y333799D01*
X147045Y334393D01*
X148377Y334603D01*
X148377Y324023D01*
X137797Y324023D01*
G37*
%LPD*%
%LPC*%
G36*
X151423Y320977D02*
X151423Y320977D01*
X162003Y320977D01*
X161793Y319645D01*
X161199Y317820D01*
X160328Y316110D01*
X159200Y314557D01*
X157843Y313200D01*
X156290Y312072D01*
X154580Y311201D01*
X152755Y310607D01*
X151423Y310397D01*
X151423Y320977D01*
G37*
%LPD*%
%LPC*%
G36*
X137797Y70023D02*
X137797Y70023D01*
X138007Y71355D01*
X138601Y73180D01*
X139472Y74890D01*
X140600Y76443D01*
X141957Y77800D01*
X143510Y78928D01*
X145220Y79799D01*
X147045Y80393D01*
X148377Y80603D01*
X148377Y70023D01*
X137797Y70023D01*
G37*
%LPD*%
%LPC*%
G36*
X151423Y66977D02*
X151423Y66977D01*
X162003Y66977D01*
X161793Y65645D01*
X161199Y63820D01*
X160328Y62110D01*
X159200Y60557D01*
X157843Y59200D01*
X156290Y58072D01*
X154580Y57201D01*
X152755Y56607D01*
X151423Y56397D01*
X151423Y66977D01*
G37*
%LPD*%
%LPC*%
G36*
X147045Y310607D02*
X147045Y310607D01*
X145220Y311201D01*
X143510Y312072D01*
X141957Y313200D01*
X140600Y314557D01*
X139472Y316110D01*
X138601Y317820D01*
X138007Y319645D01*
X137797Y320977D01*
X148377Y320977D01*
X148377Y310397D01*
X147045Y310607D01*
G37*
%LPD*%
%LPC*%
G36*
X147045Y56607D02*
X147045Y56607D01*
X145220Y57201D01*
X143510Y58072D01*
X141957Y59200D01*
X140600Y60557D01*
X139472Y62110D01*
X138601Y63820D01*
X138007Y65645D01*
X137797Y66977D01*
X148377Y66977D01*
X148377Y56397D01*
X147045Y56607D01*
G37*
%LPD*%
%LPC*%
G36*
X214223Y281523D02*
X214223Y281523D01*
X214223Y289145D01*
X216488Y289145D01*
X221845Y283788D01*
X221845Y281523D01*
X214223Y281523D01*
G37*
%LPD*%
%LPC*%
G36*
X214223Y121523D02*
X214223Y121523D01*
X214223Y129145D01*
X216488Y129145D01*
X221845Y123788D01*
X221845Y121523D01*
X214223Y121523D01*
G37*
%LPD*%
%LPC*%
G36*
X534223Y281523D02*
X534223Y281523D01*
X534223Y289145D01*
X536488Y289145D01*
X541845Y283788D01*
X541845Y281523D01*
X534223Y281523D01*
G37*
%LPD*%
%LPC*%
G36*
X134223Y121523D02*
X134223Y121523D01*
X134223Y129145D01*
X136488Y129145D01*
X141845Y123788D01*
X141845Y121523D01*
X134223Y121523D01*
G37*
%LPD*%
%LPC*%
G36*
X454223Y281523D02*
X454223Y281523D01*
X454223Y289145D01*
X456488Y289145D01*
X461845Y283788D01*
X461845Y281523D01*
X454223Y281523D01*
G37*
%LPD*%
%LPC*%
G36*
X214223Y201523D02*
X214223Y201523D01*
X214223Y209145D01*
X216488Y209145D01*
X221845Y203788D01*
X221845Y201523D01*
X214223Y201523D01*
G37*
%LPD*%
%LPC*%
G36*
X374223Y281523D02*
X374223Y281523D01*
X374223Y289145D01*
X376488Y289145D01*
X381845Y283788D01*
X381845Y281523D01*
X374223Y281523D01*
G37*
%LPD*%
%LPC*%
G36*
X294223Y201523D02*
X294223Y201523D01*
X294223Y209145D01*
X296488Y209145D01*
X301845Y203788D01*
X301845Y201523D01*
X294223Y201523D01*
G37*
%LPD*%
%LPC*%
G36*
X294223Y281523D02*
X294223Y281523D01*
X294223Y289145D01*
X296488Y289145D01*
X301845Y283788D01*
X301845Y281523D01*
X294223Y281523D01*
G37*
%LPD*%
%LPC*%
G36*
X374223Y201523D02*
X374223Y201523D01*
X374223Y209145D01*
X376488Y209145D01*
X381845Y203788D01*
X381845Y201523D01*
X374223Y201523D01*
G37*
%LPD*%
%LPC*%
G36*
X134223Y201523D02*
X134223Y201523D01*
X134223Y209145D01*
X136488Y209145D01*
X141845Y203788D01*
X141845Y201523D01*
X134223Y201523D01*
G37*
%LPD*%
%LPC*%
G36*
X454223Y121523D02*
X454223Y121523D01*
X454223Y129145D01*
X456488Y129145D01*
X461845Y123788D01*
X461845Y121523D01*
X454223Y121523D01*
G37*
%LPD*%
%LPC*%
G36*
X374223Y121523D02*
X374223Y121523D01*
X374223Y129145D01*
X376488Y129145D01*
X381845Y123788D01*
X381845Y121523D01*
X374223Y121523D01*
G37*
%LPD*%
%LPC*%
G36*
X454223Y201523D02*
X454223Y201523D01*
X454223Y209145D01*
X456488Y209145D01*
X461845Y203788D01*
X461845Y201523D01*
X454223Y201523D01*
G37*
%LPD*%
%LPC*%
G36*
X294223Y121523D02*
X294223Y121523D01*
X294223Y129145D01*
X296488Y129145D01*
X301845Y123788D01*
X301845Y121523D01*
X294223Y121523D01*
G37*
%LPD*%
%LPC*%
G36*
X534223Y201523D02*
X534223Y201523D01*
X534223Y209145D01*
X536488Y209145D01*
X541845Y203788D01*
X541845Y201523D01*
X534223Y201523D01*
G37*
%LPD*%
%LPC*%
G36*
X532711Y121127D02*
X532711Y121127D01*
X532711Y128749D01*
X534976Y128749D01*
X540333Y123392D01*
X540333Y121127D01*
X532711Y121127D01*
G37*
%LPD*%
%LPC*%
G36*
X203555Y281523D02*
X203555Y281523D01*
X203555Y283788D01*
X208912Y289145D01*
X211177Y289145D01*
X211177Y281523D01*
X203555Y281523D01*
G37*
%LPD*%
%LPC*%
G36*
X523555Y281523D02*
X523555Y281523D01*
X523555Y283788D01*
X528912Y289145D01*
X531177Y289145D01*
X531177Y281523D01*
X523555Y281523D01*
G37*
%LPD*%
%LPC*%
G36*
X443555Y281523D02*
X443555Y281523D01*
X443555Y283788D01*
X448912Y289145D01*
X451177Y289145D01*
X451177Y281523D01*
X443555Y281523D01*
G37*
%LPD*%
%LPC*%
G36*
X363555Y281523D02*
X363555Y281523D01*
X363555Y283788D01*
X368912Y289145D01*
X371177Y289145D01*
X371177Y281523D01*
X363555Y281523D01*
G37*
%LPD*%
%LPC*%
G36*
X283555Y281523D02*
X283555Y281523D01*
X283555Y283788D01*
X288912Y289145D01*
X291177Y289145D01*
X291177Y281523D01*
X283555Y281523D01*
G37*
%LPD*%
%LPC*%
G36*
X443555Y121523D02*
X443555Y121523D01*
X443555Y123788D01*
X448912Y129145D01*
X451177Y129145D01*
X451177Y121523D01*
X443555Y121523D01*
G37*
%LPD*%
%LPC*%
G36*
X363555Y121523D02*
X363555Y121523D01*
X363555Y123788D01*
X368912Y129145D01*
X371177Y129145D01*
X371177Y121523D01*
X363555Y121523D01*
G37*
%LPD*%
%LPC*%
G36*
X283555Y121523D02*
X283555Y121523D01*
X283555Y123788D01*
X288912Y129145D01*
X291177Y129145D01*
X291177Y121523D01*
X283555Y121523D01*
G37*
%LPD*%
%LPC*%
G36*
X123555Y121523D02*
X123555Y121523D01*
X123555Y123788D01*
X128912Y129145D01*
X131177Y129145D01*
X131177Y121523D01*
X123555Y121523D01*
G37*
%LPD*%
%LPC*%
G36*
X522043Y121127D02*
X522043Y121127D01*
X522043Y123392D01*
X527400Y128749D01*
X529665Y128749D01*
X529665Y121127D01*
X522043Y121127D01*
G37*
%LPD*%
%LPC*%
G36*
X363555Y201523D02*
X363555Y201523D01*
X363555Y203788D01*
X368912Y209145D01*
X371177Y209145D01*
X371177Y201523D01*
X363555Y201523D01*
G37*
%LPD*%
%LPC*%
G36*
X283555Y201523D02*
X283555Y201523D01*
X283555Y203788D01*
X288912Y209145D01*
X291177Y209145D01*
X291177Y201523D01*
X283555Y201523D01*
G37*
%LPD*%
%LPC*%
G36*
X443555Y201523D02*
X443555Y201523D01*
X443555Y203788D01*
X448912Y209145D01*
X451177Y209145D01*
X451177Y201523D01*
X443555Y201523D01*
G37*
%LPD*%
%LPC*%
G36*
X203555Y201523D02*
X203555Y201523D01*
X203555Y203788D01*
X208912Y209145D01*
X211177Y209145D01*
X211177Y201523D01*
X203555Y201523D01*
G37*
%LPD*%
%LPC*%
G36*
X523555Y201523D02*
X523555Y201523D01*
X523555Y203788D01*
X528912Y209145D01*
X531177Y209145D01*
X531177Y201523D01*
X523555Y201523D01*
G37*
%LPD*%
%LPC*%
G36*
X203555Y121523D02*
X203555Y121523D01*
X203555Y123788D01*
X208912Y129145D01*
X211177Y129145D01*
X211177Y121523D01*
X203555Y121523D01*
G37*
%LPD*%
%LPC*%
G36*
X123555Y201523D02*
X123555Y201523D01*
X123555Y203788D01*
X128912Y209145D01*
X131177Y209145D01*
X131177Y201523D01*
X123555Y201523D01*
G37*
%LPD*%
%LPC*%
G36*
X374223Y110855D02*
X374223Y110855D01*
X374223Y118477D01*
X381845Y118477D01*
X381845Y116212D01*
X376488Y110855D01*
X374223Y110855D01*
G37*
%LPD*%
%LPC*%
G36*
X454223Y110855D02*
X454223Y110855D01*
X454223Y118477D01*
X461845Y118477D01*
X461845Y116212D01*
X456488Y110855D01*
X454223Y110855D01*
G37*
%LPD*%
%LPC*%
G36*
X294223Y110855D02*
X294223Y110855D01*
X294223Y118477D01*
X301845Y118477D01*
X301845Y116212D01*
X296488Y110855D01*
X294223Y110855D01*
G37*
%LPD*%
%LPC*%
G36*
X214223Y110855D02*
X214223Y110855D01*
X214223Y118477D01*
X221845Y118477D01*
X221845Y116212D01*
X216488Y110855D01*
X214223Y110855D01*
G37*
%LPD*%
%LPC*%
G36*
X134223Y110855D02*
X134223Y110855D01*
X134223Y118477D01*
X141845Y118477D01*
X141845Y116212D01*
X136488Y110855D01*
X134223Y110855D01*
G37*
%LPD*%
%LPC*%
G36*
X532711Y110459D02*
X532711Y110459D01*
X532711Y118081D01*
X540333Y118081D01*
X540333Y115816D01*
X534976Y110459D01*
X532711Y110459D01*
G37*
%LPD*%
%LPC*%
G36*
X534223Y270855D02*
X534223Y270855D01*
X534223Y278477D01*
X541845Y278477D01*
X541845Y276212D01*
X536488Y270855D01*
X534223Y270855D01*
G37*
%LPD*%
%LPC*%
G36*
X454223Y190855D02*
X454223Y190855D01*
X454223Y198477D01*
X461845Y198477D01*
X461845Y196212D01*
X456488Y190855D01*
X454223Y190855D01*
G37*
%LPD*%
%LPC*%
G36*
X534223Y190855D02*
X534223Y190855D01*
X534223Y198477D01*
X541845Y198477D01*
X541845Y196212D01*
X536488Y190855D01*
X534223Y190855D01*
G37*
%LPD*%
%LPC*%
G36*
X134223Y190855D02*
X134223Y190855D01*
X134223Y198477D01*
X141845Y198477D01*
X141845Y196212D01*
X136488Y190855D01*
X134223Y190855D01*
G37*
%LPD*%
%LPC*%
G36*
X374223Y190855D02*
X374223Y190855D01*
X374223Y198477D01*
X381845Y198477D01*
X381845Y196212D01*
X376488Y190855D01*
X374223Y190855D01*
G37*
%LPD*%
%LPC*%
G36*
X294223Y190855D02*
X294223Y190855D01*
X294223Y198477D01*
X301845Y198477D01*
X301845Y196212D01*
X296488Y190855D01*
X294223Y190855D01*
G37*
%LPD*%
%LPC*%
G36*
X214223Y190855D02*
X214223Y190855D01*
X214223Y198477D01*
X221845Y198477D01*
X221845Y196212D01*
X216488Y190855D01*
X214223Y190855D01*
G37*
%LPD*%
%LPC*%
G36*
X214223Y270855D02*
X214223Y270855D01*
X214223Y278477D01*
X221845Y278477D01*
X221845Y276212D01*
X216488Y270855D01*
X214223Y270855D01*
G37*
%LPD*%
%LPC*%
G36*
X294223Y270855D02*
X294223Y270855D01*
X294223Y278477D01*
X301845Y278477D01*
X301845Y276212D01*
X296488Y270855D01*
X294223Y270855D01*
G37*
%LPD*%
%LPC*%
G36*
X374223Y270855D02*
X374223Y270855D01*
X374223Y278477D01*
X381845Y278477D01*
X381845Y276212D01*
X376488Y270855D01*
X374223Y270855D01*
G37*
%LPD*%
%LPC*%
G36*
X454223Y270855D02*
X454223Y270855D01*
X454223Y278477D01*
X461845Y278477D01*
X461845Y276212D01*
X456488Y270855D01*
X454223Y270855D01*
G37*
%LPD*%
%LPC*%
G36*
X208912Y270855D02*
X208912Y270855D01*
X203555Y276212D01*
X203555Y278477D01*
X211177Y278477D01*
X211177Y270855D01*
X208912Y270855D01*
G37*
%LPD*%
%LPC*%
G36*
X208912Y190855D02*
X208912Y190855D01*
X203555Y196212D01*
X203555Y198477D01*
X211177Y198477D01*
X211177Y190855D01*
X208912Y190855D01*
G37*
%LPD*%
%LPC*%
G36*
X448912Y110855D02*
X448912Y110855D01*
X443555Y116212D01*
X443555Y118477D01*
X451177Y118477D01*
X451177Y110855D01*
X448912Y110855D01*
G37*
%LPD*%
%LPC*%
G36*
X448912Y190855D02*
X448912Y190855D01*
X443555Y196212D01*
X443555Y198477D01*
X451177Y198477D01*
X451177Y190855D01*
X448912Y190855D01*
G37*
%LPD*%
%LPC*%
G36*
X368912Y110855D02*
X368912Y110855D01*
X363555Y116212D01*
X363555Y118477D01*
X371177Y118477D01*
X371177Y110855D01*
X368912Y110855D01*
G37*
%LPD*%
%LPC*%
G36*
X288912Y190855D02*
X288912Y190855D01*
X283555Y196212D01*
X283555Y198477D01*
X291177Y198477D01*
X291177Y190855D01*
X288912Y190855D01*
G37*
%LPD*%
%LPC*%
G36*
X288912Y110855D02*
X288912Y110855D01*
X283555Y116212D01*
X283555Y118477D01*
X291177Y118477D01*
X291177Y110855D01*
X288912Y110855D01*
G37*
%LPD*%
%LPC*%
G36*
X368912Y190855D02*
X368912Y190855D01*
X363555Y196212D01*
X363555Y198477D01*
X371177Y198477D01*
X371177Y190855D01*
X368912Y190855D01*
G37*
%LPD*%
%LPC*%
G36*
X527400Y110459D02*
X527400Y110459D01*
X522043Y115816D01*
X522043Y118081D01*
X529665Y118081D01*
X529665Y110459D01*
X527400Y110459D01*
G37*
%LPD*%
%LPC*%
G36*
X208912Y110855D02*
X208912Y110855D01*
X203555Y116212D01*
X203555Y118477D01*
X211177Y118477D01*
X211177Y110855D01*
X208912Y110855D01*
G37*
%LPD*%
%LPC*%
G36*
X288912Y270855D02*
X288912Y270855D01*
X283555Y276212D01*
X283555Y278477D01*
X291177Y278477D01*
X291177Y270855D01*
X288912Y270855D01*
G37*
%LPD*%
%LPC*%
G36*
X128912Y190855D02*
X128912Y190855D01*
X123555Y196212D01*
X123555Y198477D01*
X131177Y198477D01*
X131177Y190855D01*
X128912Y190855D01*
G37*
%LPD*%
%LPC*%
G36*
X368912Y270855D02*
X368912Y270855D01*
X363555Y276212D01*
X363555Y278477D01*
X371177Y278477D01*
X371177Y270855D01*
X368912Y270855D01*
G37*
%LPD*%
%LPC*%
G36*
X128912Y110855D02*
X128912Y110855D01*
X123555Y116212D01*
X123555Y118477D01*
X131177Y118477D01*
X131177Y110855D01*
X128912Y110855D01*
G37*
%LPD*%
%LPC*%
G36*
X448912Y270855D02*
X448912Y270855D01*
X443555Y276212D01*
X443555Y278477D01*
X451177Y278477D01*
X451177Y270855D01*
X448912Y270855D01*
G37*
%LPD*%
%LPC*%
G36*
X528912Y190855D02*
X528912Y190855D01*
X523555Y196212D01*
X523555Y198477D01*
X531177Y198477D01*
X531177Y190855D01*
X528912Y190855D01*
G37*
%LPD*%
%LPC*%
G36*
X528912Y270855D02*
X528912Y270855D01*
X523555Y276212D01*
X523555Y278477D01*
X531177Y278477D01*
X531177Y270855D01*
X528912Y270855D01*
G37*
%LPD*%
%LPC*%
G36*
X532699Y199999D02*
X532699Y199999D01*
X532699Y200001D01*
X532701Y200001D01*
X532701Y199999D01*
X532699Y199999D01*
G37*
%LPD*%
%LPC*%
G36*
X372699Y119999D02*
X372699Y119999D01*
X372699Y120001D01*
X372701Y120001D01*
X372701Y119999D01*
X372699Y119999D01*
G37*
%LPD*%
%LPC*%
G36*
X292699Y119999D02*
X292699Y119999D01*
X292699Y120001D01*
X292701Y120001D01*
X292701Y119999D01*
X292699Y119999D01*
G37*
%LPD*%
%LPC*%
G36*
X531187Y119603D02*
X531187Y119603D01*
X531187Y119605D01*
X531189Y119605D01*
X531189Y119603D01*
X531187Y119603D01*
G37*
%LPD*%
%LPC*%
G36*
X452699Y199999D02*
X452699Y199999D01*
X452699Y200001D01*
X452701Y200001D01*
X452701Y199999D01*
X452699Y199999D01*
G37*
%LPD*%
%LPC*%
G36*
X372699Y199999D02*
X372699Y199999D01*
X372699Y200001D01*
X372701Y200001D01*
X372701Y199999D01*
X372699Y199999D01*
G37*
%LPD*%
%LPC*%
G36*
X292699Y199999D02*
X292699Y199999D01*
X292699Y200001D01*
X292701Y200001D01*
X292701Y199999D01*
X292699Y199999D01*
G37*
%LPD*%
%LPC*%
G36*
X149899Y322499D02*
X149899Y322499D01*
X149899Y322501D01*
X149901Y322501D01*
X149901Y322499D01*
X149899Y322499D01*
G37*
%LPD*%
%LPC*%
G36*
X132699Y199999D02*
X132699Y199999D01*
X132699Y200001D01*
X132701Y200001D01*
X132701Y199999D01*
X132699Y199999D01*
G37*
%LPD*%
%LPC*%
G36*
X532699Y279999D02*
X532699Y279999D01*
X532699Y280001D01*
X532701Y280001D01*
X532701Y279999D01*
X532699Y279999D01*
G37*
%LPD*%
%LPC*%
G36*
X212699Y199999D02*
X212699Y199999D01*
X212699Y200001D01*
X212701Y200001D01*
X212701Y199999D01*
X212699Y199999D01*
G37*
%LPD*%
%LPC*%
G36*
X452699Y279999D02*
X452699Y279999D01*
X452699Y280001D01*
X452701Y280001D01*
X452701Y279999D01*
X452699Y279999D01*
G37*
%LPD*%
%LPC*%
G36*
X372699Y279999D02*
X372699Y279999D01*
X372699Y280001D01*
X372701Y280001D01*
X372701Y279999D01*
X372699Y279999D01*
G37*
%LPD*%
%LPC*%
G36*
X292699Y279999D02*
X292699Y279999D01*
X292699Y280001D01*
X292701Y280001D01*
X292701Y279999D01*
X292699Y279999D01*
G37*
%LPD*%
%LPC*%
G36*
X212699Y279999D02*
X212699Y279999D01*
X212699Y280001D01*
X212701Y280001D01*
X212701Y279999D01*
X212699Y279999D01*
G37*
%LPD*%
%LPC*%
G36*
X212699Y119999D02*
X212699Y119999D01*
X212699Y120001D01*
X212701Y120001D01*
X212701Y119999D01*
X212699Y119999D01*
G37*
%LPD*%
%LPC*%
G36*
X149899Y68499D02*
X149899Y68499D01*
X149899Y68501D01*
X149901Y68501D01*
X149901Y68499D01*
X149899Y68499D01*
G37*
%LPD*%
%LPC*%
G36*
X132699Y119999D02*
X132699Y119999D01*
X132699Y120001D01*
X132701Y120001D01*
X132701Y119999D01*
X132699Y119999D01*
G37*
%LPD*%
%LPC*%
G36*
X452699Y119999D02*
X452699Y119999D01*
X452699Y120001D01*
X452701Y120001D01*
X452701Y119999D01*
X452699Y119999D01*
G37*
%LPD*%
D10*
X124500Y322500D03*
X149900Y322500D03*
X175300Y322500D03*
X200700Y322500D03*
X226100Y322500D03*
X251500Y322500D03*
X276900Y322500D03*
X302300Y322500D03*
X327700Y322500D03*
X353100Y322500D03*
X378500Y322500D03*
X403900Y322500D03*
X429300Y322500D03*
X454700Y322500D03*
X480100Y322500D03*
X124500Y68500D03*
X149900Y68500D03*
X175300Y68500D03*
X200700Y68500D03*
X226100Y68500D03*
X251500Y68500D03*
X276900Y68500D03*
X302300Y68500D03*
X327700Y68500D03*
X353100Y68500D03*
X378500Y68500D03*
X403900Y68500D03*
X429300Y68500D03*
X454700Y68500D03*
X480100Y68500D03*
D11*
X507300Y280000D03*
X532700Y280000D03*
X427300Y280000D03*
X452700Y280000D03*
X347300Y280000D03*
X372700Y280000D03*
X267300Y280000D03*
X292700Y280000D03*
X187300Y280000D03*
X212700Y280000D03*
X507300Y200000D03*
X532700Y200000D03*
X427300Y200000D03*
X452700Y200000D03*
X347300Y200000D03*
X372700Y200000D03*
X267300Y200000D03*
X292700Y200000D03*
X187300Y200000D03*
X212700Y200000D03*
X107300Y200000D03*
X132700Y200000D03*
X505788Y119604D03*
X531188Y119604D03*
X427300Y120000D03*
X452700Y120000D03*
X347300Y120000D03*
X372700Y120000D03*
X267300Y120000D03*
X292700Y120000D03*
X187300Y120000D03*
X212700Y120000D03*
X107300Y120000D03*
X132700Y120000D03*
X81900Y280000D03*
X158100Y280000D03*
D12*
X426720Y182880D02*
X426720Y120396D01*
X426720Y182880D02*
X332232Y277368D01*
X332232Y309372D01*
X329184Y312420D01*
X329184Y321564D01*
X426720Y120396D02*
X427300Y120000D01*
X329184Y321564D02*
X327700Y322500D01*
M02*
