G04 EAGLE Gerber RS-274X export*
G75*
%MOMM*%
%FSLAX34Y34*%
%LPD*%
%INSoldermask Top*%
%IPPOS*%
%AMOC8*
5,1,8,0,0,1.08239X$1,22.5*%
G01*
%ADD10C,2.133600*%
%ADD11P,1.649562X8X22.500000*%


D10*
X124500Y322500D03*
X149900Y322500D03*
X175300Y322500D03*
X200700Y322500D03*
X226100Y322500D03*
X251500Y322500D03*
X276900Y322500D03*
X302300Y322500D03*
X327700Y322500D03*
X353100Y322500D03*
X378500Y322500D03*
X403900Y322500D03*
X429300Y322500D03*
X454700Y322500D03*
X480100Y322500D03*
X124500Y68500D03*
X149900Y68500D03*
X175300Y68500D03*
X200700Y68500D03*
X226100Y68500D03*
X251500Y68500D03*
X276900Y68500D03*
X302300Y68500D03*
X327700Y68500D03*
X353100Y68500D03*
X378500Y68500D03*
X403900Y68500D03*
X429300Y68500D03*
X454700Y68500D03*
X480100Y68500D03*
D11*
X507300Y280000D03*
X532700Y280000D03*
X427300Y280000D03*
X452700Y280000D03*
X347300Y280000D03*
X372700Y280000D03*
X267300Y280000D03*
X292700Y280000D03*
X187300Y280000D03*
X212700Y280000D03*
X507300Y200000D03*
X532700Y200000D03*
X427300Y200000D03*
X452700Y200000D03*
X347300Y200000D03*
X372700Y200000D03*
X267300Y200000D03*
X292700Y200000D03*
X187300Y200000D03*
X212700Y200000D03*
X107300Y200000D03*
X132700Y200000D03*
X505788Y119604D03*
X531188Y119604D03*
X427300Y120000D03*
X452700Y120000D03*
X347300Y120000D03*
X372700Y120000D03*
X267300Y120000D03*
X292700Y120000D03*
X187300Y120000D03*
X212700Y120000D03*
X107300Y120000D03*
X132700Y120000D03*
X81900Y280000D03*
X158100Y280000D03*
M02*
