M48
;GenerationSoftware,Autodesk,EAGLE,9.6.0*%
;CreationDate,2024-11-22T16:44:48Z*%
FMAT,2
ICI,OFF
METRIC,TZ,000.000
T2C0.813
T1C1.000
%
G90
M71
T1
X12450Y32250
X14990Y32250
X17530Y32250
X20070Y32250
X22610Y32250
X25150Y32250
X27690Y32250
X30230Y32250
X32770Y32250
X35310Y32250
X37850Y32250
X40390Y32250
X42930Y32250
X45470Y32250
X48010Y32250
X12450Y6850
X14990Y6850
X17530Y6850
X20070Y6850
X22610Y6850
X25150Y6850
X27690Y6850
X30230Y6850
X32770Y6850
X35310Y6850
X37850Y6850
X40390Y6850
X42930Y6850
X45470Y6850
X48010Y6850
T2
X50730Y28000
X53270Y28000
X42730Y28000
X45270Y28000
X34730Y28000
X37270Y28000
X26730Y28000
X29270Y28000
X18730Y28000
X21270Y28000
X50730Y20000
X53270Y20000
X42730Y20000
X45270Y20000
X34730Y20000
X37270Y20000
X26730Y20000
X29270Y20000
X18730Y20000
X21270Y20000
X10730Y20000
X13270Y20000
X50579Y11960
X53119Y11960
X42730Y12000
X45270Y12000
X34730Y12000
X37270Y12000
X26730Y12000
X29270Y12000
X18730Y12000
X21270Y12000
X10730Y12000
X13270Y12000
X8190Y28000
X15810Y28000
M30